<?xml version="1.0" encoding="UTF-8"?>
<svg viewBox="0 0 64 64" xmlns="http://www.w3.org/2000/svg">
 <defs>
  <filter id="d">
   <feGaussianBlur stdDeviation=".7524"/>
  </filter>
  <filter id="e" x="-.11556" y="-.05786" width="1.2311" height="1.1157">
   <feGaussianBlur stdDeviation=".86591"/>
  </filter>
  <linearGradient id="c" x1="-49.006" x2="-44.414" y1="1026" y2="1004.1" gradientUnits="userSpaceOnUse">
   <stop stop-color="#00195d" offset="0"/>
   <stop stop-color="#00195d" stop-opacity="0" offset="1"/>
  </linearGradient>
  <linearGradient id="b" x1="-53.706" x2="-27.639" y1="981.67" y2="1078.1" gradientUnits="userSpaceOnUse">
   <stop stop-color="#003380" offset="0"/>
   <stop stop-color="#003380" stop-opacity="0" offset="1"/>
  </linearGradient>
  <linearGradient id="a" x1="-48.639" x2="-44.51" y1="995.68" y2="1015" gradientUnits="userSpaceOnUse">
   <stop stop-color="#fff" offset="0"/>
   <stop stop-color="#fff" stop-opacity="0" offset="1"/>
  </linearGradient>
 </defs>
 <g transform="translate(0 -988.36)">
  <g fill="none" filter="url(#d)" stroke="#000" stroke-width="1.7">
   <path d="m36.226 1006.6s6.2386 4.4913 6.2386 13.928-6.2386 13.625-6.2386 13.625"/>
   <path d="m43.783 1000.5s6.8068 6.4701 6.8068 20.065c0 13.595-6.8068 19.629-6.8068 19.629"/>
   <path d="m50.505 994.35s8.6388 8.4794 8.6388 26.296-8.6388 25.725-8.6388 25.725"/>
  </g>
  <path transform="matrix(1.6479 0 0 1.6479 106.04 -702.69)" d="m-45.10074,1027.657c-.26969-.022-.65124.133-1.1875.5-2.14504,1.4681-9.9375,9.9688-9.9375,9.9688-.06797,0-.12153.024-.1875.031h-6.00659v14.9375h6.19409c0,0 7.65415,8.5319 9.9375,10s1.8125-.8131 1.8125-1.8125v-31.3437c0-.7496.18406-2.2145-.625-2.2813v.0002z" filter="url(#e)"/>
  <g transform="matrix(1.662 0 0 1.662 91.972 -660.54)">
   <path d="m-36.087 993.64c-0.26969-0.0222-0.65124 0.13298-1.1875 0.5-2.145 1.4681-9.9375 9.9688-9.9375 9.9688-0.06797 0-0.12153 0.024-0.1875 0.031h-6.0066v14.938h6.1941s7.6542 8.5319 9.9375 10 1.8125-0.8131 1.8125-1.8125v-31.344c0-0.74962 0.18406-2.2145-0.625-2.2812v2e-4z" fill="#00aad4"/>
   <path d="m-36.087 993.64c-0.26969-0.0222-0.65124 0.13298-1.1875 0.5-2.145 1.4681-9.9375 9.9688-9.9375 9.9688-0.06797 0-0.12153 0.024-0.1875 0.031h-6.0066v14.938h6.1941s7.6542 8.5319 9.9375 10 1.8125-0.8131 1.8125-1.8125v-31.344c0-0.74962 0.18406-2.2145-0.625-2.2812v2e-4z" fill="url(#c)" stroke="url(#b)" stroke-width=".6"/>
   <path d="m-36.824 995.37c-0.24164-0.0198-0.58351 0.11916-1.064 0.448-1.9219 1.3154-9.1086 9.2389-9.1086 9.2389-0.0609 0-0.10889 0.022-0.168 0.028h-5.404v9.9401c3.0781-0.4691 6.3508-1.1921 9.7159-2.1561 2.2372-0.641 4.4581-1.4609 6.4863-2.2303l0.10233-13.225c0-0.67166 0.16491-1.9842-0.56-2.044v-1.3e-4z" fill="url(#a)"/>
  </g>
  <g fill="none" stroke="#333" stroke-width="1.7">
   <path d="m36.226 1006.6s6.2386 4.4913 6.2386 13.928-6.2386 13.625-6.2386 13.625"/>
   <path d="m43.783 1000.5s6.8068 6.4701 6.8068 20.065c0 13.595-6.8068 19.629-6.8068 19.629"/>
   <path d="m50.505 994.35s8.6388 8.4794 8.6388 26.296-8.6388 25.725-8.6388 25.725"/>
  </g>
 </g>
</svg>
